<?xml version="1.0" standalone="no"?>
<!DOCTYPE svg PUBLIC "-//W3C//DTD SVG 20010904//EN"
 "http://www.w3.org/TR/2001/REC-SVG-20010904/DTD/svg10.dtd">
<svg version="1.0" xmlns="http://www.w3.org/2000/svg"
 width="1280.000000pt" height="640.000000pt" viewBox="0 0 1280.000000 640.000000"
 preserveAspectRatio="xMidYMid meet">
<g transform="translate(0.000000,640.000000) scale(0.100000,-0.100000)"
fill="#009688" stroke="none">
<path d="M8425 4373 c-43 -9 -145 -47 -145 -54 0 -4 -20 -29 -44 -56 -71 -78
-176 -120 -359 -143 l-88 -11 -42 31 c-46 34 -79 37 -126 14 -56 -28 -136 -16
-218 34 -69 42 -70 42 -167 42 -96 0 -99 1 -126 30 -15 17 -35 30 -44 30 -9 0
-46 -13 -82 -30 l-66 -30 -41 23 c-41 21 -50 22 -282 19 -196 -2 -248 0 -284
13 -35 12 -52 13 -84 4 -45 -12 -95 -7 -209 22 -102 25 -135 24 -204 -8 l-59
-28 -213 3 c-182 2 -224 -1 -290 -17 -127 -32 -253 -49 -552 -76 -251 -23
-351 -36 -480 -61 -19 -4 -83 -27 -142 -50 -171 -68 -313 -89 -428 -63 -99 23
-101 22 -185 -26 -97 -56 -116 -61 -163 -46 -33 11 -50 9 -147 -17 -60 -17
-162 -35 -225 -42 -63 -6 -247 -27 -408 -46 -161 -19 -297 -32 -302 -29 -6 3
-10 2 -10 -3 0 -6 -18 -12 -40 -14 -49 -4 -49 -3 -14 116 14 49 23 90 21 93
-7 7 -43 -95 -56 -159 -10 -46 -16 -57 -34 -60 -18 -2 -24 4 -34 37 l-11 40
-1 -42 -1 -42 -47 -6 c-92 -13 -459 -76 -576 -99 l-117 -23 6 21 c4 12 15 38
26 59 11 22 17 41 15 44 -5 4 -57 -103 -57 -118 0 -10 -44 -23 -59 -17 -5 1 6
48 25 102 47 137 42 142 -11 11 -25 -60 -51 -115 -58 -121 -6 -7 -31 -15 -54
-19 l-42 -7 -4 59 -3 58 -2 -60 -2 -61 -133 -33 c-412 -104 -730 -239 -859
-365 -113 -111 -116 -204 -12 -316 342 -366 1950 -674 4169 -799 2676 -152
5635 -8 7325 355 705 152 1136 339 1216 529 99 237 -347 477 -1236 665 -85 19
-160 40 -166 47 -8 9 -13 10 -15 4 -3 -7 -63 0 -174 19 -151 27 -176 35 -223
66 -76 50 -92 81 -92 179 0 132 -28 157 -119 111 -28 -14 -56 -26 -62 -26 -6
0 -31 21 -55 46 -48 53 -55 53 -154 8 -105 -48 -166 -106 -183 -175 -6 -22
-14 -27 -53 -33 -121 -16 -291 -3 -615 49 -119 20 -249 39 -289 44 -39 5 -73
11 -76 13 -2 2 -8 36 -14 75 -38 268 -184 321 -337 121 -26 -34 -60 -75 -74
-92 l-26 -29 -46 22 c-59 28 -133 110 -199 217 -51 84 -51 84 -92 83 -23 -1
-50 -3 -61 -6z"/>
</g>
</svg>
